<svg xmlns="http://www.w3.org/2000/svg" xmlns:svgjs="http://svgjs.com/svgjs" xmlns:xlink="http://www.w3.org/1999/xlink" width="288" height="288"><svg xmlns="http://www.w3.org/2000/svg" width="288" height="288" data-name="Layer 1" viewBox="0 0 200 200"><path fill="#fff" d="M36.38 76.74H164.56a2.15 2.15 0 00.54-4.23L100.53 46.68a2.14 2.14 0 00-1.61 0L35.57 72.6a2.15 2.15 0 00.81 4.14zM99.74 51l53.63 21.45H47.3zM36.38 83.14h128.5a2.15 2.15 0 100-4.29H36.38a2.15 2.15 0 100 4.29zM45.76 134.74H43.35a2.15 2.15 0 000 4.29H59a2.15 2.15 0 100-4.29H57.21v-44a2.07 2.07 0 00-.12-.61h2a2.15 2.15 0 100-4.3H43.45a2.15 2.15 0 100 4.3h2.44a2.07 2.07 0 00-.13.61zM53 90.17a2.07 2.07 0 00-.12.61v44H50.06v-44a2.07 2.07 0 00-.12-.61zM70.49 134.74H68.07a2.15 2.15 0 000 4.29H83.76a2.15 2.15 0 100-4.29H81.93v-44a2.07 2.07 0 00-.12-.61h2a2.15 2.15 0 100-4.3H68.17a2.15 2.15 0 100 4.3h2.44a2.07 2.07 0 00-.12.61zm7.27-44.57a2.07 2.07 0 00-.12.61v44H74.78v-44a2.07 2.07 0 00-.12-.61zM95.21 134.74H92.79a2.15 2.15 0 000 4.29h15.69a2.15 2.15 0 100-4.29h-1.83v-44a2.07 2.07 0 00-.12-.61h2a2.15 2.15 0 100-4.3H92.89a2.15 2.15 0 100 4.3h2.44a2.07 2.07 0 00-.12.61zm7.27-44.57a2.07 2.07 0 00-.12.61v44H99.5v-44a2.07 2.07 0 00-.12-.61zM119.92 134.74h-2.41a2.15 2.15 0 000 4.29H133.2a2.15 2.15 0 100-4.29h-1.83v-44a2.07 2.07 0 00-.12-.61h2a2.15 2.15 0 100-4.3H117.61a2.15 2.15 0 100 4.3h2.44a2.07 2.07 0 00-.13.61zm7.28-44.57a2.07 2.07 0 00-.12.61v44h-2.86v-44a1.8 1.8 0 00-.13-.61zM144.64 134.74h-2.41a2.15 2.15 0 000 4.29h15.69a2.15 2.15 0 100-4.29h-1.83v-44a2.07 2.07 0 00-.12-.61h2a2.15 2.15 0 100-4.3H142.33a2.15 2.15 0 100 4.3h2.44a2.07 2.07 0 00-.13.61zm7.28-44.57a2.07 2.07 0 00-.12.61v44h-2.86v-44a2.07 2.07 0 00-.12-.61zM35.53 144.41a2.15 2.15 0 002.15 2.15H162.32a2.15 2.15 0 100-4.29H37.68A2.14 2.14 0 0035.53 144.41zM166.68 149.18H33.32a2.15 2.15 0 100 4.29H166.68a2.15 2.15 0 100-4.29z" class="color000 svgShape"></path></svg></svg>