<svg xmlns="http://www.w3.org/2000/svg" xmlns:svgjs="http://svgjs.com/svgjs" xmlns:xlink="http://www.w3.org/1999/xlink" width="288" height="288"><svg xmlns="http://www.w3.org/2000/svg" width="288" height="288" data-name="Layer 1" viewBox="0 0 200 200"><path fill="#fff" d="M120.26,75.34h-2.14V71.66a2,2,0,0,0-.79-1.56l-5.21-11V52.6a2,2,0,0,0-.18-.82,2.1,2.1,0,0,0-.32-.59l-9.71-19.66V21.89a2,2,0,1,0-4,0V32.26l-10,19.06a2,2,0,0,0-.49,1.28v6.57a2.07,2.07,0,0,0,.11.55l-5.23,11a1.94,1.94,0,0,0-.14,1.14v3.46h-2.4a2,2,0,0,0-2,2v38.52a2,2,0,0,0,2,2h.45v5.35a2,2,0,0,0,2,2v52.82a2,2,0,0,0,2,2h31.54a2,2,0,0,0,2-2V125.29a2,2,0,0,0,2-2v-5.35h.45a2,2,0,0,0,2-2V77.37A2,2,0,0,0,120.26,75.34Zm-6.2-1.65v1.48H86.19V73.69ZM91.45,54.63h16.62v2.51H91.45ZM100,36.87l6.68,13.53H93ZM91.3,61.2h17.32l4,8.38H87.32Zm24.45,59.26H84.25v-2h31.5ZM86.26,176.08V125.3h27.48v50.78Zm-4.5-96.69h36.48v34.47H81.76Z" class="color000 svgShape"></path><path fill="#fff" d="M102.59 95.3V87.18a2 2 0 00-4.06 0V97.47a2 2 0 002 2 1.83 1.83 0 00.7-.15h7.5a2 2 0 000-4.06zM90.41 127.1a2 2 0 00-2 2v42.53a2 2 0 004.06 0V129.13A2 2 0 0090.41 127.1zM96.83 127.1a2 2 0 00-2 2v42.53a2 2 0 104.06 0V129.13A2 2 0 0096.83 127.1zM103.25 127.1a2 2 0 00-2 2v42.53a2 2 0 104.06 0V129.13A2 2 0 00103.25 127.1zM109.67 127.1a2 2 0 00-2 2v42.53a2 2 0 104.06 0V129.13A2 2 0 00109.67 127.1z" class="color000 svgShape"></path><path fill="#fff" d="M100.36,80.11a16.35,16.35,0,1,0,16.35,16.35A16.38,16.38,0,0,0,100.36,80.11Zm0,28.64a12.29,12.29,0,1,1,12.29-12.29A12.3,12.3,0,0,1,100.36,108.75Z" class="color000 svgShape"></path></svg></svg>