<svg xmlns="http://www.w3.org/2000/svg" xmlns:svgjs="http://svgjs.com/svgjs" xmlns:xlink="http://www.w3.org/1999/xlink" width="288" height="288"><svg xmlns="http://www.w3.org/2000/svg" width="288" height="288" data-name="Layer 1" viewBox="0 0 200 200"><path fill="#fff" d="M114.43 138.4A1.25 1.25 0 01114 136a36 36 0 0016.34-54.21 1.25 1.25 0 012.05-1.44 38.46 38.46 0 01-17.48 58A1.2 1.2 0 01114.43 138.4zM121.4 72.67a1.24 1.24 0 01-.69-.21 35.53 35.53 0 00-14.66-5.56 1.25 1.25 0 11.35-2.47 37.93 37.93 0 0115.69 5.95 1.25 1.25 0 01-.69 2.29zM86.63 69.4a1.25 1.25 0 01-.48-2.4 37.89 37.89 0 019.36-2.57 1.24 1.24 0 011.41 1.06 1.25 1.25 0 01-1.06 1.41 35.82 35.82 0 00-8.75 2.4A1.18 1.18 0 0186.63 69.4zM87.31 138.34a1.25 1.25 0 01-.46-.09 38.47 38.47 0 01-8.69-66.73 1.25 1.25 0 111.48 2 36 36 0 008.13 62.4 1.25 1.25 0 01-.46 2.41z" class="color000 svgShape"></path><path fill="#fff" d="M113.65,110.71a1.25,1.25,0,0,1-.46-2.41c8.43-3.33,10-17.19,10-17.33a1.25,1.25,0,1,1,2.48.26c-.06.63-1.73,15.51-11.55,19.4A1.44,1.44,0,0,1,113.65,110.71Z" class="color000 svgShape"></path><path fill="#fff" d="M113.32,101.57a1.41,1.41,0,0,1-.44-.08,1.26,1.26,0,0,1-.81-1.12l-.79-20.05a1.27,1.27,0,0,1,.37-.94l10.83-10.8a1.25,1.25,0,0,1,1.69-.07l10.44,8.84a1.26,1.26,0,0,1,.43.87,1.25,1.25,0,0,1-.31.92l-5.79,6.45a1.25,1.25,0,1,1-1.86-1.67L132,78.43l-8.58-7.27-9.63,9.6.65,16.54,5.62-6a1.25,1.25,0,0,1,1.82,1.71l-7.66,8.11A1.24,1.24,0,0,1,113.32,101.57Z" class="color000 svgShape"></path><path fill="#fff" d="M121.37 93.49a3 3 0 01-.7-.07 1.25 1.25 0 01-.92-1c-1.15-6 .09-10.78 3.09-11.91 2.14-.79 4.48.55 6.25 3.6.13.2 1.54 2.59-2 6.34C124.54 93.09 122.43 93.49 121.37 93.49zm2.7-10.68a.84.84 0 00-.35.07c-1.18.44-2.39 3.19-1.7 8a7.11 7.11 0 003.22-2.15c2.15-2.24 1.68-3.36 1.68-3.37C126 83.77 124.91 82.81 124.07 82.81zM100.94 47.91a1.25 1.25 0 01-1.25-1.25V40.74a1.25 1.25 0 012.5 0v5.92A1.25 1.25 0 01100.94 47.91zM113.36 61h-6.22a1.25 1.25 0 010-2.5h6.22a1.25 1.25 0 010 2.5zM95.38 61H88.09a1.25 1.25 0 010-2.5h7.29a1.25 1.25 0 010 2.5zM108.15 53.71a1.21 1.21 0 01-.88-.37 1.25 1.25 0 010-1.77l4.72-4.7a1.25 1.25 0 111.76 1.77L109 53.35A1.24 1.24 0 01108.15 53.71zM93 52.56a1.25 1.25 0 01-.85-.33l-4.06-3.79a1.25 1.25 0 111.7-1.83l4.06 3.79a1.24 1.24 0 01.07 1.76A1.25 1.25 0 0193 52.56z" class="color000 svgShape"></path><path fill="#fff" d="M109.85,61h-3.11a1.25,1.25,0,0,1,0-2.5h1.76a19.73,19.73,0,0,0-1.07-4.61c-1.34-3.56-3.56-5.37-6.59-5.38C98.05,48.56,96,50,94.63,53a1.25,1.25,0,1,1-2.27-1c1.78-3.85,4.7-5.89,8.45-5.91h.06c7.86,0,10.13,9,10.23,13.71a1.24,1.24,0,0,1-.35.9A1.27,1.27,0,0,1,109.85,61Z" class="color000 svgShape"></path><path fill="#fff" d="M94.94 61H91.83a1.27 1.27 0 01-.9-.38 1.24 1.24 0 01-.35-.9A22 22 0 0192.36 52a1.25 1.25 0 012.27 1 18.75 18.75 0 00-1.45 5.53h1.76a1.25 1.25 0 010 2.5zM123.43 152.64h-46a1.25 1.25 0 01-1.25-1.25v-5a1.24 1.24 0 011.25-1.25h46a1.24 1.24 0 011.25 1.25v5A1.25 1.25 0 01123.43 152.64zm-44.71-2.5h43.46v-2.48H78.72z" class="color000 svgShape"></path><path fill="#fff" d="M117.79,173.71H83.1a1.25,1.25,0,0,1-1.25-1.25V151.39a1.25,1.25,0,0,1,1.25-1.25h34.69a1.25,1.25,0,0,1,1.25,1.25v21.07A1.25,1.25,0,0,1,117.79,173.71Zm-33.44-2.5h32.19V152.64H84.35Z" class="color000 svgShape"></path><path fill="#fff" d="M122.85 180.07H78.05a1.25 1.25 0 01-1.25-1.25v-6.36a1.25 1.25 0 011.25-1.25h44.8a1.25 1.25 0 011.25 1.25v6.36A1.25 1.25 0 01122.85 180.07zm-43.55-2.5h42.3v-3.86H79.3zM92.14 167.6a1.25 1.25 0 01-1.25-1.25V157a1.25 1.25 0 012.5 0v9.4A1.25 1.25 0 0192.14 167.6zM109.92 167.6a1.25 1.25 0 01-1.25-1.25V157a1.25 1.25 0 012.5 0v9.4A1.25 1.25 0 01109.92 167.6zM100.53 167.6a1.25 1.25 0 01-1.25-1.25V157a1.25 1.25 0 012.5 0v9.4A1.25 1.25 0 01100.53 167.6zM119.05 147.66H82.88a1.25 1.25 0 01-1.25-1.25c0-2.78 2.47-4.17 4.47-4.71l1.78-52.65C83 85.26 73.41 74.46 77.62 49.86a1.25 1.25 0 012.46.42c-4.13 24.15 5.48 34 9.81 37.15a1.27 1.27 0 01.52 1.06l-1.84 54.27a1.27 1.27 0 01-1.08 1.2 6 6 0 00-2.77 1.2h32.49a6 6 0 00-2.77-1.2 1.26 1.26 0 01-1.08-1.2l-1.84-54.27c0-.91 0-1.88 0-2.91 0-3.58.1-7.28-2.3-9.45a7.6 7.6 0 00-2.1-1c-1.79-.68-4.22-1.6-4.32-4.33a1.48 1.48 0 010-.21 1.09 1.09 0 010-.18V68.44a1.25 1.25 0 012.5 0v2.14c0 1 .82 1.46 2.71 2.18a9 9 0 012.88 1.51c3.25 2.93 3.18 7.6 3.13 11.34 0 1 0 1.93 0 2.77l1.81 53.32c2 .54 4.47 1.93 4.47 4.71A1.25 1.25 0 01119.05 147.66z" class="color000 svgShape"></path><path fill="#fff" d="M94.47 74.31A10.73 10.73 0 0189 72.79a1.25 1.25 0 011.41-2.06c1.19.82 4.4 1.51 5.82.76a1 1 0 00.6-1.08v-2a1.25 1.25 0 012.5 0v2a3.54 3.54 0 01-1.93 3.29A6.25 6.25 0 0194.47 74.31zM119.05 147.66H103.88a1.25 1.25 0 01-1.25-1.25V112.29a1.25 1.25 0 011.25-1.25h9.7a1.25 1.25 0 011.25 1.21l1 29.45c2 .54 4.47 1.93 4.47 4.71A1.25 1.25 0 01119.05 147.66zm-13.92-2.5h12.09a5.94 5.94 0 00-2.78-1.2 1.26 1.26 0 01-1.08-1.2l-1-29.22h-7.24z" class="color000 svgShape"></path><path fill="#fff" d="M87.32,144a1.32,1.32,0,0,1-.39-.06,1.24,1.24,0,0,1-.86-1.23l1.13-37.42a1.29,1.29,0,0,1,.21-.66l20.72-30.73a1.26,1.26,0,0,1,1.69-.38c2.33,1.42,3.7,4,4.07,7.58a.89.89,0,0,1,0,.23c-2.3,29.29-2.92,30.14-3.13,30.42-.66.9-2.24,1.82-9,1.82a9.35,9.35,0,0,0-3.63.44c.48.86,3,2.7,5.68,4a1.27,1.27,0,0,1,.64.81,1.22,1.22,0,0,1-.18,1l-16,23.57A1.25,1.25,0,0,1,87.32,144Zm2.37-38.27-1,32.75,12.77-18.85c-2.84-1.58-6.35-4-5.81-6.26.49-2,3.54-2.3,6.14-2.3,5,0,6.48-.54,6.86-.75.55-2.69,2.17-21.93,2.73-29.07a7.84,7.84,0,0,0-1.93-4.85Zm18.92,4.8Z" class="color000 svgShape"></path><path fill="#fff" d="M97,114.68H96.7a1.24,1.24,0,0,1-1-.54,1.29,1.29,0,0,1-.14-1.16L109.81,75.8a1.24,1.24,0,0,1,1-.79,1.22,1.22,0,0,1,1.17.5,11,11,0,0,1,1.91,5.56,1.25,1.25,0,0,1-2.49.25,12.32,12.32,0,0,0-.32-1.87l-12.2,31.78a36.31,36.31,0,0,1,4.22-.25c1.81,0,5.18-.12,5.65-.74a1.25,1.25,0,0,1,2,1.48c-1.19,1.61-4.16,1.68-7.6,1.76-1.73,0-4.62.11-5.13.59A1.15,1.15,0,0,1,97,114.68Z" class="color000 svgShape"></path><path fill="#fff" d="M113.94 117.74c-4.25 0-9.76-4.28-10-4.47a1.24 1.24 0 01-.43-1.3 1.34 1.34 0 011.15-1c3.47-.2 4.09-.74 4.11-.76a1.23 1.23 0 011.74-.25 1.27 1.27 0 01.25 1.76 4.2 4.2 0 01-2.65 1.35 17 17 0 004.52 2L111.29 82.6a1.25 1.25 0 011.2-1.3 1.26 1.26 0 011.3 1.2l1.4 33.94a1.22 1.22 0 01-.34.91A1.26 1.26 0 01113.94 117.74zM89.15 90.86a1.3 1.3 0 01-.84-.31 1.22 1.22 0 01-.44-1l0-1.17a1.25 1.25 0 012.16-.81L102.56 80C99.06 79.1 94 77.28 93 74.2c-9.35-1.26-10.14-13.14-10.73-21.89a1.25 1.25 0 112.5-.16c.7 10.52 1.89 19.26 9.36 19.64a1.26 1.26 0 011.15 1 1.55 1.55 0 010 .31c0 2.24 6.42 4.41 10.76 5.17a1.25 1.25 0 01.43 2.3L89.8 90.68a1.31 1.31 0 01-.43.16z" class="color000 svgShape"></path><path fill="#fff" d="M89.16 89.7h-.1a1.25 1.25 0 01-1.15-1.34l.92-12.21a1.25 1.25 0 012.49.19L90.4 88.54A1.25 1.25 0 0189.16 89.7zM100.85 70c-3.66 0-6.65-3.37-6.65-7.52V58.76c0-4.15 3-7.52 6.65-7.52s6.65 3.37 6.65 7.52v3.72C107.5 66.63 104.52 70 100.85 70zm0-16.26c-2.28 0-4.15 2.25-4.15 5v3.72c0 2.77 1.87 5 4.15 5s4.15-2.25 4.15-5V58.76C105 56 103.14 53.74 100.85 53.74zM104.81 49.65a1.29 1.29 0 01-.62-.17 1.25 1.25 0 01-.46-1.7l2.82-4.92a1.25 1.25 0 112.16 1.25L105.9 49A1.25 1.25 0 01104.81 49.65zM109.32 57.17a1.25 1.25 0 01-.3-2.47l4.68-1.15a1.25 1.25 0 01.6 2.43l-4.68 1.15A1.54 1.54 0 01109.32 57.17zM96.7 49.65A1.28 1.28 0 0195.61 49L92.8 44.11A1.25 1.25 0 1195 42.86l2.81 4.92a1.23 1.23 0 01-.46 1.7A1.26 1.26 0 0196.7 49.65zM92.19 57.17a1.54 1.54 0 01-.3 0L87.21 56a1.25 1.25 0 01.6-2.43l4.68 1.15a1.25 1.25 0 01-.3 2.47zM82.39 38.54H78.16a1.24 1.24 0 01-.7-.22c-.11-.07-2.57-1.78-2.57-5.94 0-1.78 1.06-3.44 2.08-5.05 1.52-2.38 2.39-3.91 1.29-5.4a1.25 1.25 0 011.68-1.8c6.62 4.27 7.28 9.13 7.07 11.64-.23 3-1.93 5.7-4.11 6.66A1.26 1.26 0 0182.39 38.54zM78.63 36H82.1a5.79 5.79 0 002.42-4.47c.13-1.59-.22-4.42-3.34-7.34a12.87 12.87 0 01-2.1 4.44c-.83 1.31-1.69 2.66-1.69 3.71A5.13 5.13 0 0078.63 36z" class="color000 svgShape"></path><path fill="#fff" d="M85.83,42.35H75.05A1.25,1.25,0,0,1,73.8,41.1V37.29A1.25,1.25,0,0,1,75.05,36H85.83a1.25,1.25,0,0,1,1.25,1.25V41.1A1.25,1.25,0,0,1,85.83,42.35Zm-9.53-2.5h8.28V38.54H76.3Z" class="color000 svgShape"></path><path fill="#fff" d="M82.82 55.45H79.55a1.25 1.25 0 01-1.25-1.1l-1.49-13.1a1.26 1.26 0 011.24-1.4h5.87a1.25 1.25 0 011.24 1.36l-1.09 13.1A1.25 1.25 0 0182.82 55.45zM80.66 53h1l.89-10.6H79.45zM106.25 61.68h0a6.81 6.81 0 01-6.65-6.77V52.49a1.25 1.25 0 011.25-1.25c3.68 0 6.67 3.37 6.67 7.52v1.67a1.25 1.25 0 01-1.25 1.25zM102.08 54v.93A4.3 4.3 0 00105 59v-.19A5 5 0 00102.08 54z" class="color000 svgShape"></path><path fill="#fff" d="M95.38 61.68a1.24 1.24 0 01-.87-.36 1.27 1.27 0 01-.38-.89V58.76c0-4.15 3-7.52 6.67-7.52a1.25 1.25 0 011.25 1.25V54.9a6.81 6.81 0 01-6.64 6.77zM99.55 54a5 5 0 00-2.92 4.79V59a4.3 4.3 0 002.92-4.05zM77.69 179.89H64a1.25 1.25 0 01-1.25-1.25V172.3h-3.5v2.88A1.25 1.25 0 0158 176.43H49.33a1.25 1.25 0 01-1.25-1.25v-8.64H41.72v4.51a1.25 1.25 0 01-1.25 1.25h-7a1.25 1.25 0 010-2.5h5.75v-4.51A1.25 1.25 0 0140.47 164h8.86a1.25 1.25 0 011.25 1.25v8.64h6.14v-2.88A1.25 1.25 0 0158 169.8h6a1.25 1.25 0 011.25 1.25v6.34H77.69a1.25 1.25 0 010 2.5zM83.1 167.6H77.69a1.25 1.25 0 01-1.25-1.25v-8.68H71.53v4.38a1.25 1.25 0 01-1.25 1.25H60.69a1.25 1.25 0 01-1.25-1.25v-5.89H57.22v2.11A1.24 1.24 0 0156 159.52H44.47a1.25 1.25 0 010-2.5H54.72v-2.11A1.25 1.25 0 0156 153.66h4.72a1.25 1.25 0 011.25 1.25v5.89H69v-4.38a1.25 1.25 0 011.25-1.25h7.41a1.25 1.25 0 011.25 1.25v8.68H83.1a1.25 1.25 0 010 2.5z" class="color000 svgShape"></path><rect width="2.5" height="3.67" x="52.76" y="164.98" fill="#fff" class="color000 svgShape"></rect><rect width="2.5" height="3.67" x="66.59" y="171.32" fill="#fff" class="color000 svgShape"></rect><rect width="2.5" height="3.67" x="70.76" y="171.32" fill="#fff" class="color000 svgShape"></rect><rect width="2.5" height="3.67" x="64.42" y="164.98" fill="#fff" class="color000 svgShape"></rect><rect width="2.5" height="3.67" x="43.26" y="169.48" fill="#fff" class="color000 svgShape"></rect><rect width="2.5" height="3.67" x="33.59" y="174.98" fill="#fff" class="color000 svgShape"></rect><rect width="2.5" height="3.67" x="37.02" y="174.98" fill="#fff" class="color000 svgShape"></rect><path fill="#fff" d="M136 179.89H122.31a1.25 1.25 0 010-2.5h12.47v-6.34A1.25 1.25 0 01136 169.8h6a1.25 1.25 0 011.25 1.25v2.88h6.14v-8.64a1.25 1.25 0 011.25-1.25h8.86a1.25 1.25 0 011.25 1.25v4.51h5.75a1.25 1.25 0 110 2.5h-7a1.25 1.25 0 01-1.25-1.25v-4.51h-6.36v8.64a1.25 1.25 0 01-1.25 1.25H142a1.25 1.25 0 01-1.25-1.25V172.3h-3.5v6.34A1.25 1.25 0 01136 179.89zM139.31 163.3h-9.59a1.25 1.25 0 01-1.25-1.25v-4.38h-4.91v4a1.25 1.25 0 01-1.25 1.25h-4.52a1.25 1.25 0 110-2.5h3.27v-4a1.25 1.25 0 011.25-1.25h7.41a1.25 1.25 0 011.25 1.25v4.38h7.09v-5.89a1.25 1.25 0 011.25-1.25H144a1.25 1.25 0 011.25 1.25V157h10.25a1.25 1.25 0 010 2.5H144a1.24 1.24 0 01-1.25-1.25v-2.11h-2.22v5.89A1.24 1.24 0 01139.31 163.3z" class="color000 svgShape"></path><rect width="2.5" height="3.67" x="124.76" y="163.15" fill="#fff" class="color000 svgShape"></rect><rect width="2.5" height="3.67" x="144.74" y="164.98" fill="#fff" class="color000 svgShape"></rect><rect width="2.5" height="3.67" x="130.91" y="171.32" fill="#fff" class="color000 svgShape"></rect><rect width="2.5" height="3.67" x="126.74" y="171.32" fill="#fff" class="color000 svgShape"></rect><rect width="2.5" height="3.67" x="154.24" y="169.48" fill="#fff" class="color000 svgShape"></rect><rect width="2.5" height="10.56" x="49.42" y="149.16" fill="#fff" class="color000 svgShape"></rect><rect width="2.5" height="9.26" x="141.09" y="146.76" fill="#fff" class="color000 svgShape"></rect></svg></svg>