<svg xmlns="http://www.w3.org/2000/svg" xmlns:svgjs="http://svgjs.com/svgjs" xmlns:xlink="http://www.w3.org/1999/xlink" width="288" height="288"><svg xmlns="http://www.w3.org/2000/svg" width="288" height="288" data-name="Layer 1" viewBox="0 0 200 200"><path fill="#fff" d="M134.81,114.75a18.55,18.55,0,0,1,11.72-17.3l16-6.39L161,87.22l-5.44,2.17V84.17h-4.14v6.88l-5.86,2.34-2.77-4.16-3.45,2.3,2.46,3.68a22.51,22.51,0,0,0-5.25,4.29l-.84-.84,4.75-4.75L137.49,91l-4.75,4.74-1.06-1.06L138,88.31h11.27V84.17h-7.13L146.33,80h7.12V75.89h-3l.3-.31-2.93-2.93L141,79.47V73.82h-4.14v9.79l-2.08,2.07v-6l-2.17-6.53-3.93,1.31,2,5.89v9.46l-1.92,1.92-2-2,2-8-4.65-7L120.67,77l3.63,5.45-1,3.85-5.09-5.09v-9.5h-4.14V77.1l-4.45-4.45-2.93,2.93L109.11,78h-5.35V82.1h9.49l12.58,12.57-5,5a23,23,0,0,0-2.11-2.08l1.9-5.69-5.05-5-2.92,2.93L115.88,93l-.68,2a23,23,0,0,0-3-1.46L110,92.71V86.24h-4.14v4.81l-2.07-.83V82.89l-5.29-2.64L96.62,84l3,1.5v3.12l-3.38-1.35-1.53,3.84,16,6.39a18.56,18.56,0,0,1,11.71,17.3v44h-29V87.83a18.55,18.55,0,0,1,11.72-17.3l28.39-11.36L132,55.33l-1.3.52V51h-4.14V57.5L120.32,60V57.25h4.14V53.11H117l6.82-6.82-2.93-2.93L115.32,49H112.9l6.81-6.82-2.92-2.93-9.7,9.7-2.88-5.75,3.08-3.09-2.93-2.93-5.19,5.2L104,52l-1.75,1.75L99.4,48l-3.71,1.85,3.48,7L93.4,62.61l-2.67-2.68L87.8,62.86l2.68,2.67-3.29,3.29V60.6l8.28-4.14V46.9H91.33v7L87.19,56V46.32l11-3.67-1.31-3.93L87.19,42V38.62H83.05v9.07l-4.14-2.07v-7H74.77v9.56l8.28,4.14V66.75l-4.14-4.14V52l-7.13-4.75-2.3,3.44,5.29,3.53v4.24l-6.21-6.21V41.9l-4.75-4.75-2.93,2.93,3.54,3.53v4.5l-11-11-2.93,2.93,2.68,2.68H45.78V46.9H57.35l8.28,8.28h-4.5L57.6,51.65l-2.93,2.92,4.75,4.75H69.77L76,65.53H72.7v4.14h7.42l2.93,2.93V73l-4.63,4.63a22.66,22.66,0,0,0-6.2-7.44l-3.81-9.53-3.85,1.54,1.89,4.7-4.1-1.48v-4H58.21v2.49l-4.15-1.51V51H43.71v4.14h6.21v5.69l-8.28-3v-11H37.5V60.77l27.63,10a18.56,18.56,0,0,1,11.71,17.3v70.62H62.35V123.79A8.33,8.33,0,0,1,67,116.33l8.64-4.17-1.8-3.73L72.7,109v-4.13H68.56V111l-3.33,1.61a12,12,0,0,0-2.79,1.86l-2.34-2.35,1-1h5.36v-4.14H65.27L68,104.27,65,101.34l-1.55,1.55-1.19-4.73-4,1,1.78,7.15-2.88,2.88-1.68-1.68,2.72-1.36v-5.42H54.06v2.86l-1.66.83-3.08-3.08-2.93,2.93,4.18,4.18-1.57.78,1.85,3.71,2.81-1.41.58.59-2.34,2.35a12,12,0,0,0-2.79-1.86L45.78,111v-4.06H41.64V109l-1.17-.57-1.8,3.73,8.64,4.17A8.33,8.33,0,0,1,52,123.79v34.92H37.5v4.14H161.73v-4.14H134.81Zm-4.14,1.33v4.5l-4.14,4.14v-4.5Zm0,25.21-4.14,4.14v-4.5l4.14-4.14Zm0-10.36-4.14,4.14v-4.49l4.14-4.14Zm-4.14,20.35,4.14-4.14v4.5l-4.14,4.14Zm4.14,6.21v1.22h-1.21ZM134,102.86a22.65,22.65,0,0,0-2.77,6.8l-4.72,4.72a22.74,22.74,0,0,0-.83-5.74l7.05-7Zm-5.26-5.26,1.07,1.06-5.76,5.76c-.23-.47-.49-.93-.75-1.38ZM92.47,76.16l-3.38-3.38,4.31-4.32v6.26Q92.9,75.43,92.47,76.16Zm-3.21,69.27-2.07,2.07V143l2.07-2.07Zm0-10.36-2.07,2.07v-4.49l2.07-2.07ZM81,107.8l2.07-2.07v4.5L81,112.3Zm0,10.35,2.07-2.07v4.5L81,122.65Zm0,10.36,2.07-2.07v4.49L81,133Zm0,10.35,2.07-2.07v4.5L81,143.36Zm8.28-14.14-2.07,2.07v-4.5l2.07-2.07Zm0-10.35-2.07,2.07v-4.5l2.07-2.07Zm0-10.35-2.07,2.07v-4.5l2.07-2.07ZM90.6,80.15a22.71,22.71,0,0,0-.77,2.59l-2.64,2.64V76.74Zm-1.34,9v4.49l-2.07,2.07V91.24Zm-6.21,10.7L81,102v-4.5l2.07-2.07ZM81,149.21l2.07-2.07v4.5L81,153.71Zm2.07,8.28v1.22H81.84Zm4.14-4.14,2.07-2.07v7.43H87.19Zm10.36-83.1V67.6H94.26l4.14-4.14h3.29v4.1A22.29,22.29,0,0,0,97.55,70.25Zm18.63-17.14v8.54l-10.35,4.14V63.46h2.93l6.81-6.82-2.92-2.92L107,59.32h-4.5l6.22-6.21ZM83.05,78.81V89.52L81,91.59v-3.5a23.18,23.18,0,0,0-.89-6.31ZM58.21,135.07l-2.08,2.07v-6.56l2.08-2.07ZM56.13,143l2.08-2.07v8.64l-2.08,2.07Zm3.71-25.28a12.4,12.4,0,0,0-1.55,4.84l-2.16,2.16v-.93a12.28,12.28,0,0,0-1.63-6.07l2.67-2.67Zm-3.71,39.77,2.08-2.07v3.29H56.13Z" class="color000 svgShape"></path></svg></svg>