<svg xmlns="http://www.w3.org/2000/svg" xmlns:svgjs="http://svgjs.com/svgjs" xmlns:xlink="http://www.w3.org/1999/xlink" width="288" height="288"><svg xmlns="http://www.w3.org/2000/svg" width="288" height="288" data-name="Layer 1" viewBox="0 0 200 200"><path fill="#fff" d="M175.69,129.24l-.05-.09a1.62,1.62,0,0,0-.3-.39h0l-24.56-24a1.92,1.92,0,0,0-1.3-.53H120.91V98.86h6.4a1.87,1.87,0,0,0,0-3.74h-6.4V81.36a1.87,1.87,0,0,0-1.86-1.87h-4.2V68.7h6.06a1.87,1.87,0,0,0,0-3.74h-11.1V57.17a9.24,9.24,0,0,0-6.87-8.92h0a3.12,3.12,0,0,1-.75-.31v-9a1.87,1.87,0,0,0-3.74,0v9a3,3,0,0,1-.76.31,9.24,9.24,0,0,0-6.87,8.92V65H79.09a1.87,1.87,0,0,0,0,3.74h6.06V79.49H80.22a1.87,1.87,0,0,0-1.86,1.87V95.12H72.69a1.87,1.87,0,0,0,0,3.74h5.67v5.36H50.53a1.92,1.92,0,0,0-1.31.53l-24.56,24h0a1.78,1.78,0,0,0-.28.38l-.07.11a3.29,3.29,0,0,0-.16.44v0a1.58,1.58,0,0,0,0,.38v31A1.87,1.87,0,0,0,26,163h68.3a3.16,3.16,0,0,0,.32,0h10.82a3.16,3.16,0,0,0,.32,0H174a1.87,1.87,0,0,0,1.87-1.87v-31A1.87,1.87,0,0,0,175.69,129.24ZM94.55,57.17a5.5,5.5,0,0,1,4.08-5.31,6.37,6.37,0,0,0,1.68-.68,6.81,6.81,0,0,0,1.67.68,5.5,5.5,0,0,1,4.09,5.31V65H94.55ZM148.72,108l20.73,20.26H120.91V108Zm-27,39.42h.42v5.89a1.86,1.86,0,0,0,1.86,1.86h1.44v4h-10V135a1.83,1.83,0,0,0,.84.34v4.15a1.87,1.87,0,0,0,1.87,1.87h1.71v4.14A1.87,1.87,0,0,0,121.72,147.38ZM82.09,108H92.68L82.09,119.73Zm0,17.35L97.7,108h11.12L91.18,127.57H84.45a1.86,1.86,0,0,0-1.4.65h-1ZM88.31,132H97a8.37,8.37,0,0,0-5.37,7.81v19.39H88.31Zm7,7.81a4.65,4.65,0,0,1,9.3,0v19.39h-9.3ZM103,132h8.68v27.2h-3.31V139.76A8.37,8.37,0,0,0,103,132Zm13.36-3.73a2.34,2.34,0,0,0-.32-.31l1.13-1.26v1.57Zm.81-7.15-5.85,6.5H96.2L113.85,108h3.33Zm-16.12-16.85,4.83-5.36H117l-4.83,5.36ZM83.73,139.51v-4.32a1.85,1.85,0,0,0,.84-.82v24.78h-10v-4H76a1.86,1.86,0,0,0,1.87-1.86v-5.89h.42a1.87,1.87,0,0,0,1.87-1.86v-4.14h1.71A1.87,1.87,0,0,0,83.73,139.51Zm25.52-44.39,7.93-8.81v8.81Zm-5,0H89.1L99.8,83.23h15.13ZM88.89,68.7h22.22V79.49H88.89Zm-6.8,14.53H94.78L84.08,95.12h-2Zm0,19.69,3.65-4.06h15.13L96,104.22h-14Zm-30.8,5H78.36v20.26H30.55ZM27.84,132h53a1.86,1.86,0,0,0-.85,1.56v4.14H78.28a1.87,1.87,0,0,0-1.87,1.86v4.14H76a1.87,1.87,0,0,0-1.86,1.87v5.88H72.69a1.87,1.87,0,0,0-1.86,1.87v5.94h-.24V142a7.27,7.27,0,0,0-14.54,0v17.23H27.84Zm32,27.2V142a3.54,3.54,0,1,1,7.07,0v17.17Zm73.61.06V142a3.54,3.54,0,0,1,7.07,0v17.17Zm38.76,0H144.21V142a7.28,7.28,0,0,0-14.55,0v17.17h-.49v-5.94a1.87,1.87,0,0,0-1.86-1.87h-1.44v-5.88a1.87,1.87,0,0,0-1.87-1.87h-.41v-4.14a1.87,1.87,0,0,0-1.87-1.86H120v-4.14a1.89,1.89,0,0,0-.84-1.56h53Z" class="color000 svgShape"></path><path fill="#fff" d="M100.31 53.73a4.11 4.11 0 104.11 4.11A4.11 4.11 0 00100.31 53.73zm-.38 4.11a.38.38 0 01.76 0C100.69 58.25 99.93 58.25 99.93 57.84zM52.93 153.73H51.27v-12a6.84 6.84 0 00-2.15-5A7.41 7.41 0 0047 135.36 9.33 9.33 0 0046 135a7.51 7.51 0 00-4.15.05 7.37 7.37 0 00-.95.36 7 7 0 00-4.13 6.31v12H34.71a1.87 1.87 0 100 3.73H52.93a1.87 1.87 0 000-3.73zm-12.4 0v-12a3.23 3.23 0 011.94-2.92l.48-.18a3.66 3.66 0 012.1 0 2.63 2.63 0 01.45.16 3.6 3.6 0 011 .68 3.13 3.13 0 011 2.27v12zM146.73 157.46H165a1.87 1.87 0 100-3.73h-1.87v-12a6.84 6.84 0 00-2.15-5 7.41 7.41 0 00-2.17-1.42 9.33 9.33 0 00-.93-.32 7.47 7.47 0 00-4.14.05 7.08 7.08 0 00-5.08 6.67v12h-1.88a1.87 1.87 0 000 3.73zm5.61-15.7a3.22 3.22 0 011.95-2.92 3.94 3.94 0 01.48-.18 3.62 3.62 0 012.09 0 2.36 2.36 0 01.45.16 3.47 3.47 0 011 .68 3.13 3.13 0 011 2.27v12h-7z" class="color000 svgShape"></path></svg></svg>